<?xml version="1.0" encoding="utf-8"?>
<!-- Generator: Adobe Illustrator 16.0.0, SVG Export Plug-In . SVG Version: 6.00 Build 0)  -->
<!DOCTYPE svg PUBLIC "-//W3C//DTD SVG 1.1//EN" "http://www.w3.org/Graphics/SVG/1.1/DTD/svg11.dtd">
<svg version="1.1" id="Capa_1" xmlns="http://www.w3.org/2000/svg" xmlns:xlink="http://www.w3.org/1999/xlink" x="0px" y="0px"
	 width="32px" height="32px" viewBox="0 0 32 32" enable-background="new 0 0 32 32" xml:space="preserve">
<g>
	<path fill="#FFD561" d="M4.1,26H4v-0.47C4,25.69,4.04,25.85,4.1,26z"/>
	<path fill="#FFD561" d="M7.9,12.74c-0.03,0.23-0.07,0.44-0.11,0.47L7.9,12.74z"/>
	<path fill="#FFD561" d="M25,10.5V11H8.61c-0.74,0-1.42,0.46-1.59,1.19L4.03,25.1C4.02,25.16,4,25.21,4,25.26V7h5.19L9.4,7.11
		l1.55,2.33C11.19,9.79,11.58,10,11.99,10H24.5C24.78,10,25,10.22,25,10.5z"/>
	<path fill="#FFD561" d="M29.95,12.5L29.38,15H24.5c-0.28,0-0.5,0.22-0.5,0.5s0.22,0.5,0.5,0.5h4.65l-0.471,2.02L23.5,18
		c-0.28,0-0.5,0.22-0.5,0.5s0.22,0.5,0.5,0.5h4.96L28,21h-5.5c-0.28,0-0.5,0.22-0.5,0.5s0.22,0.5,0.5,0.5h5.27l-0.46,2H21.5
		c-0.28,0-0.5,0.22-0.5,0.5s0.22,0.5,0.5,0.5h5.58l-0.12,0.5c-0.07,0.28-0.34,0.5-0.62,0.5H10.4c-0.28,0-0.45-0.22-0.38-0.5L12.9,13
		l0.11-0.5c0.05-0.28,0.34-0.5,0.61-0.5H29.56C29.84,12,30.01,12.22,29.95,12.5z"/>
</g>
<path fill="#2D2220" d="M30.71,11.39c-0.27-0.33-0.67-0.39-1.1-0.39H26V8.5C26,7.67,25.33,7,24.5,7H20v1h4.5C24.78,8,25,8.22,25,8.5
	V11H8.61c-0.74,0-1.42,0.46-1.59,1.19L4.03,25.1C4.02,25.16,4,25.21,4,25.26v0.271C4,25.69,4.04,25.85,4.1,26H3.5
	C3.22,26,3,25.78,3,25.5v-20C3,5.22,3.22,5,3.5,5h5.69L9.4,5.11l1.55,2.33C11.19,7.79,11.58,8,11.99,8H16V7h-4.01l-0.2-0.11
	l-1.56-2.33C10,4.21,9.61,4,9.19,4H3.5C2.67,4,2,4.67,2,5.5v20C2,26.33,2.67,27,3.5,27h22.89c0.74,0,1.431-0.64,1.591-1.38
	l2.989-13.09C31.07,12.1,30.97,11.72,30.71,11.39z M29.95,12.5L29.38,15H24.5c-0.28,0-0.5,0.22-0.5,0.5s0.22,0.5,0.5,0.5h4.65
	l-0.471,2.02L23.5,18c-0.28,0-0.5,0.22-0.5,0.5s0.22,0.5,0.5,0.5h4.96L28,21h-5.5c-0.28,0-0.5,0.22-0.5,0.5s0.22,0.5,0.5,0.5h5.27
	l-0.46,2H21.5c-0.28,0-0.5,0.22-0.5,0.5s0.22,0.5,0.5,0.5h5.58l-0.12,0.5c-0.07,0.28-0.34,0.5-0.62,0.5h-21
	c-0.27,0-0.45-0.22-0.38-0.5l2.83-12.29l0.11-0.47l0.05-0.24c0.05-0.24,0.27-0.44,0.51-0.49C8.49,12,8.53,12,8.56,12h21
	C29.84,12,30.01,12.22,29.95,12.5z"/>
<rect x="17" y="7" fill="#2D2220" width="2" height="1"/>
</svg>
